<?xml version="1.0" encoding="UTF-8" standalone="no"?>
<!DOCTYPE svg PUBLIC "-//W3C//DTD SVG 1.1//EN" "http://www.w3.org/Graphics/SVG/1.1/DTD/svg11.dtd">
<svg width="100%" height="100%" viewBox="0 0 751 292" version="1.1" xmlns="http://www.w3.org/2000/svg" xmlns:xlink="http://www.w3.org/1999/xlink" xml:space="preserve" xmlns:serif="http://www.serif.com/" style="fill-rule:evenodd;clip-rule:evenodd;stroke-linejoin:round;stroke-miterlimit:2;">
    <g transform="matrix(0.75,0,0,0.75,0,0)">
        <g transform="matrix(1,0,0,1,-315.391,-142.002)">
            <path d="M643.38,529.02C636.3,530.18 502.34,530.09 490,528.92C479.26,527.9 470.41,526.31 461.5,523.8C457.65,522.72 452.88,521.43 450.89,520.94C445.48,519.61 432.62,514.31 422.5,509.24C381.66,488.79 346.68,451.18 330.2,410C325.55,398.38 321.04,382.83 318.56,369.9C316.73,360.36 316.32,354.9 316.4,341.26C316.4,341.26 316.821,331.453 317.466,327.371C318.037,323.761 317.55,322.71 320.27,316.77C323.11,310.567 332.84,299.71 343.15,295.5C343.15,295.5 349.377,294.131 352.023,294.079C377.665,293.579 497,292.5 497,292.5L516.72,292.5C638.04,292.49 647.26,292.49 654.84,296.02C655.85,296.49 656.83,297.03 658.05,297.64C667.26,302.23 676.85,314.75 679.97,326.24C682.05,333.9 680.95,346.31 677.56,353.47C672.27,364.64 661.17,374.93 650.27,378.76C645.93,380.29 635.01,380.47 529.75,380.75C466.09,380.92 414,381.21 414,381.39C414,382.28 420.6,393.92 423.36,397.91C426.44,402.35 444.85,420.98 446.17,420.99C446.54,421 448.16,422.1 449.76,423.45C452.97,426.15 469.73,434.87 472.88,435.48C473.98,435.69 475.69,436.29 476.69,436.82C477.68,437.34 482.1,438.59 486.5,439.58C493.69,441.21 502.26,441.46 571,442.04C613.08,442.4 648.85,443.06 650.5,443.51C658.59,445.72 670.9,455.76 674.68,463.22C680.37,474.45 681.24,477.92 680.82,487.65C680.45,495.96 680.03,497.63 676.75,503.92C670.79,515.32 661.576,522.447 655.827,525.142C649.918,527.912 647.41,528.37 643.38,529.02ZM425,262.61C414.8,265.06 403.03,263.75 394.5,259.23C386.71,255.11 375.56,242.41 373.67,235.52C369.91,221.8 370.54,211.86 375.89,200.42C379.8,192.07 387.09,184.89 400.94,175.74C427.11,158.47 459.45,146.89 489.5,144.04C503.82,142.69 637.84,142.64 644.95,143.99C658.18,146.5 671.17,156.5 677.26,168.87C679.95,174.33 680.48,176.67 680.82,184.46C681.16,192.14 680.87,194.49 679.05,199.06C674.81,209.65 672.61,213.14 666.77,218.55C660.1,224.72 657.37,226.33 648.87,229.04C643.23,230.84 638.84,230.96 571.7,231.05C500.29,231.15 476.237,239.667 473.169,240.835C460.724,245.574 430.45,261.3 425,262.61Z" style="fill:rgb(19,128,228);fill-rule:nonzero;stroke:black;stroke-width:2px;"/>
        </g>
        <g transform="matrix(1,0,0,1,45.15,-522.957)">
            <text x="324.435px" y="750.368px" style="font-family:'TsukuARdGothic-Bold', 'Tsukushi A Round Gothic', serif;font-weight:700;font-size:93.333px;">-<tspan x="376.888px 444.368px 523.421px 591.555px 681.155px 777.755px 840.848px 890.315px " y="750.368px 750.368px 750.368px 750.368px 750.368px 750.368px 750.368px 750.368px ">AUTOWELT</tspan></text>
        </g>
    </g>
</svg>
